<svg width="1920" height="1770" viewBox="0 0 1920 1770" fill="none" xmlns="http://www.w3.org/2000/svg">
<path d="M1758.52 446.709C1918.25 560.531 1974.04 761.8 1903.03 899.48C1831.53 1038.14 1633.59 1115.82 1524.37 1240.78C1413.34 1366.07 1390.54 1539.63 1272.39 1649.26C1154.25 1758.9 942.549 1804.28 755.611 1739.07C567.348 1673.21 404.325 1495.78 271.68 1336.93C139.034 1178.09 38.0922 1038.48 -16.0956 897.563C-71.128 755.014 -81.2135 611.477 -84.322 447.061C-88.275 281.014 -87.9029 92.783 30.9955 28.4942C150.375 -36.7733 386.474 22.2281 579.796 84.4999C771.793 146.119 921.857 212.64 1127.82 259.251C1333.79 305.862 1598.31 333.866 1758.52 446.709Z" fill="#F0A329" fill-opacity="0.15"/>
</svg>
