<svg width="1920" height="330" viewBox="0 0 1920 330" fill="none" xmlns="http://www.w3.org/2000/svg">
<path d="M1920 279.3H1874.27C1828.53 279.3 1737.33 279.3 1645.33 211.647C1554.27 144.628 1462.67 8.37185 1372 0.449973C1280 -7.4719 1188 109.772 1097.33 135.597C1005.73 160.472 914.667 93.9281 822.667 101.85C731.467 109.772 640 195.328 548 203.25C457.2 211.172 365.333 144.628 274.667 127.2C182.8 109.772 91.9999 144.628 45.3333 160.947L-5.72205e-05 177.9V330H45.7333C91.4667 330 182.667 330 274.667 330C365.733 330 457.333 330 548 330C640 330 732 330 822.667 330C914.267 330 1005.33 330 1097.33 330C1188.53 330 1280 330 1372 330C1462.8 330 1554.67 330 1645.33 330C1737.2 330 1828 330 1874.67 330H1920V279.3Z" fill="#FFF4E2"/>
</svg>
