<svg width="1920" height="330" viewBox="0 0 1920 330" fill="none" xmlns="http://www.w3.org/2000/svg">
<path d="M0 50.7H45.7333C91.4667 50.7 182.667 50.7 274.667 118.353C365.733 185.372 457.333 321.628 548 329.55C640 337.472 732 220.228 822.667 194.403C914.267 169.528 1005.33 236.072 1097.33 228.15C1188.53 220.228 1280 134.672 1372 126.75C1462.8 118.828 1554.67 185.372 1645.33 202.8C1737.2 220.228 1828 185.372 1874.67 169.053L1920 152.1V3.05176e-05H1874.27C1828.53 3.05176e-05 1737.33 3.05176e-05 1645.33 3.05176e-05C1554.27 3.05176e-05 1462.67 3.05176e-05 1372 3.05176e-05C1280 3.05176e-05 1188 3.05176e-05 1097.33 3.05176e-05C1005.73 3.05176e-05 914.667 3.05176e-05 822.667 3.05176e-05C731.467 3.05176e-05 640 3.05176e-05 548 3.05176e-05C457.2 3.05176e-05 365.333 3.05176e-05 274.667 3.05176e-05C182.8 3.05176e-05 92 3.05176e-05 45.3333 3.05176e-05H0V50.7Z" fill="#FFF4E2"/>
</svg>
